<svg width="140" height="226" fill="none" xmlns="http://www.w3.org/2000/svg"><path d="M132.201 94.033c0-13.916-.726-28.012-4.399-41.522-3.266-12.07-9.116-23.779-19.003-31.795C97.416 11.484 82.541 8.6 68.119 8.872c-13.061.225-26.077 3.648-36.417 11.799-9.57 7.52-15.828 18.284-19.41 29.723C7.393 65.93 7.71 82.414 7.438 98.536c-.363 20.851-.227 41.658.09 62.509.273 17.654.68 35.307.862 52.961.046 3.513.046 7.025.046 10.538 0 .766 1.179.766 1.179 0 0-16.258-.408-32.47-.68-48.728-.182-10.313-.318-20.626-.454-30.939 6.44-.405 12.608 1.351 17.868 5.134 4.944 3.558 8.799 8.422 12.245 13.376 1.633 2.341 3.22 4.728 4.853 7.115 1.723 2.477 3.447 4.954 5.714 6.981 4.309 3.783 9.57 6.079 14.603 8.781.046.045.091.045.091.045 1.814.991 3.628 2.027 5.352 3.243 1.723 1.216 3.356 2.477 5.034 3.693 1.315.946 2.63 1.846 3.945 2.837a29.517 29.517 0 016.168 6.395c.544.811 1.088 1.621 1.587 2.477.408.63 1.406.045 1.043-.586-1.723-2.792-3.628-5.449-6.122-7.656-2.45-2.161-5.26-3.963-7.937-5.899-1.678-1.216-3.356-2.522-5.124-3.603-.907-.54-1.814-1.081-2.767-1.621 1.86-1.937 3.674-4.008 5.67-5.81v0c1.541-1.396 3.174-2.702 5.033-3.693 4.535-2.476 9.66-3.692 14.105-6.349 4.49-2.658 8.027-6.621 11.882-10.043a40.89 40.89 0 015.306-4.008c.045-.045.09-.045.09-.09 2.313-1.442 4.762-2.612 7.438-3.468 5.306-1.666 10.884-2.027 16.417-2.027.227 0 .363-.135.454-.27.181 19.68.227 39.361-.454 59.041a600.496 600.496 0 01-.725 15.627c-.046.766 1.133.766 1.179 0 1.224-21.707 1.406-43.504 1.27-65.256-.091-21.661-.545-43.458-.499-65.21zm-1.179 54.987c-4.944 0-9.932.271-14.785 1.487-3.22.81-6.258 2.116-9.07 3.783-2.449-5.585-5.034-11.079-7.71-16.528l-3.946-8.062c-1.541-3.152-2.947-6.62-4.807-9.592-.272-.45-.77-.225-.59.27 1.134 3.108 2.858 6.17 4.264 9.187l3.81 8.152c2.675 5.719 5.305 11.439 8.072 17.068-1.089.675-2.132 1.441-3.13 2.207-4.217 3.332-7.71 7.475-12.063 10.583-4.354 3.062-9.57 4.458-14.331 6.71-2.177 1.036-4.127 2.342-5.941 3.873.317-8.106.998-28.012.998-33.911l-.046-8.962c0-3.513.227-7.251-.136-10.719-.045-.54-.59-.495-.635 0-.362 3.288-.136 6.801-.181 10.133l-.136 9.007c-.09 6.35-.907 27.877-.907 35.398l-.046.045c-2.04 1.891-3.854 3.963-5.76 5.944-.453-.27-.952-.495-1.405-.765-3.537-1.847-7.12-3.603-10.386-5.945-5.124-3.693-8.208-9.322-11.746-14.411-3.446-5.044-7.165-9.998-11.972-13.826-5.08-4.053-11.202-6.44-17.778-6.485-.726 0-1.451.045-2.177.09-.045-4.278-.045-8.556-.09-12.835 4.444-3.287 8.843-6.71 13.151-10.132l7.03-5.63c2.766-2.207 5.805-4.323 8.344-6.8.363-.36.046-.811-.408-.495-2.812 1.756-5.442 4.143-8.072 6.214l-7.12 5.495c-4.309 3.332-8.663 6.62-12.926 9.997V115.92c.046-6.801.136-13.601.272-20.401.091-.045.227-.045.318-.09l8.798-2.027c3.447-.765 7.166-1.396 10.476-2.522.499-.18.408-.675-.136-.63-3.31.405-6.712 1.35-9.977 2.072l-8.844 1.89c-.181.046-.408.091-.59.136.091-3.378.137-6.71.227-10.088.227-7.7.5-15.402 1.905-23.013 2.222-12.069 6.758-24.093 14.966-33.416 8.254-9.367 19.592-14.951 31.882-16.933 7.483-1.216 15.148-1.17 22.676-.27 7.12.81 14.195 2.747 20.499 6.17 11.247 6.08 18.911 16.483 23.356 28.237 4.127 10.943 5.85 22.697 6.485 34.361-2.041-.09-4.081.046-6.122.09-2.086.045-4.218-.044-6.213.406-.182.045-.136.225 0 .27 2.04.36 4.172.225 6.258.225 2.041 0 4.082.045 6.122-.09.091 1.486.137 3.017.182 4.504.091 2.972.136 5.99.136 8.962l-6.168-1.352c-3.447-.765-7.029-1.8-10.567-2.206-.544-.045-.635.45-.136.63 3.175 1.081 6.667 1.667 9.887 2.387l6.939 1.666c.045 5.855-.046 11.71 0 17.564l.136 15.312c-3.175-2.657-6.44-5.269-9.706-7.836l-7.074-5.584c-2.767-2.207-5.533-4.684-8.526-6.576-.454-.27-.771.136-.409.496 2.359 2.342 5.261 4.368 7.846 6.44l6.984 5.719c3.628 2.928 7.211 5.9 10.839 8.827.046 5.134.136 10.268.182 15.402 0 1.531.045 3.062.045 4.594.045-.135-.091-.226-.317-.226zm7.528 75.569c-.045.766-1.225.766-1.179 0 .363-5.584.589-11.124.816-16.708.862-22.833.68-45.665.408-68.498-.136-11.349-.317-22.698-.408-34.001-.091-9.413.136-18.825-.272-28.192-.59-13.69-2.449-27.652-7.8-40.352-5.125-12.204-13.787-22.607-25.805-28.642-7.03-3.513-14.83-5.494-22.676-6.35-8.209-.9-16.644-.99-24.853.18-13.242 1.892-25.85 7.251-35.283 16.798C12.428 28.012 7.03 40.036 4.31 52.465c-1.588 7.386-2.132 14.817-2.404 22.293-.408 11.259-.59 22.562-.68 33.821-.136 21.392.136 42.783.544 64.175.317 17.293.77 34.587.77 51.88 0 .766-1.178.766-1.178 0 0-3.693-.046-7.431-.046-11.123-.226-18.96-.68-37.875-.997-56.79-.318-22.202-.454-44.359 0-66.561.362-16.393.317-32.966 5.986-48.593 4.263-11.754 11.474-22.382 21.769-29.723C39.729 3.422 54.196.18 68.39 0c15.601-.18 31.882 2.612 44.581 12.16 10.612 7.97 17.279 19.635 21.088 32.064 4.127 13.556 5.261 27.922 5.261 42.018.045 22.877.408 45.755.59 68.678.226 23.238.09 46.476-1.361 69.669zm-37.415-129.7c-.272-.18-.181-.406.136-.27 1.769.675 3.447 1.485 5.17 2.251 1.678.766 3.492 1.486 5.125 2.432.363.225.181.63-.227.495-1.769-.63-3.447-1.576-5.125-2.387-1.723-.81-3.446-1.62-5.079-2.522zm12.925 5.404c1.996.495 3.9 1.486 5.805 2.341 2.086.946 4.218 1.802 6.213 2.928.408.225.136.855-.317.72-2.132-.765-4.218-1.846-6.259-2.837-1.859-.856-3.855-1.666-5.533-2.882-.181-.09-.09-.315.091-.27zm-14.648 14.546c.226.36-.136.63-.409.315-1.315-1.306-2.403-2.882-3.582-4.323-1.18-1.486-2.359-2.927-3.447-4.459-.181-.27 0-.405.227-.18a107.336 107.336 0 013.673 4.279c1.18 1.396 2.495 2.837 3.538 4.368zm10.385 11.889c.272.405-.272.811-.589.496-1.588-1.622-2.994-3.468-4.4-5.225-1.315-1.576-2.766-3.197-3.718-4.953-.091-.135.09-.271.226-.18 1.588 1.306 2.858 3.017 4.218 4.593 1.406 1.711 2.948 3.378 4.263 5.269zm-25.487 5.404c.544 2.207 1.224 4.414 1.587 6.666.09.45-.59.63-.771.18-.726-2.162-1.134-4.414-1.678-6.62-.499-1.982-1.088-4.054-1.18-6.08 0-.18.182-.225.273-.045.862 1.801 1.27 3.918 1.769 5.899zm-20.046-19.275c-.272 1.847-.68 3.693-1.043 5.54-.408 1.801-.68 3.738-1.224 5.494-.136.405-.59.315-.5-.135.228-1.847.772-3.693 1.18-5.494.408-1.847.862-3.648 1.36-5.45.046-.315.273-.27.227.045zm-2.72 13.691c-.046 2.072-.59 4.098-.999 6.125-.453 2.207-.816 4.503-1.496 6.665-.136.45-.816.27-.771-.18.272-2.252.861-4.459 1.36-6.71.454-1.982.771-4.099 1.588-5.99.136-.09.317-.045.317.09zm-9.162-6.125c-1.179 3.288-2.993 6.53-4.535 9.728l-3.9 8.106c-2.812 5.81-5.67 11.574-8.753 17.249-.227.36-1.043-.046-.862-.451 2.857-5.989 5.896-11.889 8.89-17.789l4.035-8.061c1.452-2.972 2.812-6.26 4.581-9.052.136-.225.317-.27.453-.225.137.045.182.225.091.495zm-8.753-5.134c.998-1.576 2.313-2.972 3.492-4.458 1.18-1.486 2.359-2.927 3.628-4.324.227-.225.409-.09.227.181a106.71 106.71 0 01-3.401 4.503c-1.134 1.486-2.222 3.062-3.538 4.414-.272.315-.634.045-.408-.316zm-9.569 12.565c1.27-1.891 2.767-3.648 4.172-5.449 1.27-1.621 2.495-3.378 4.082-4.729.136-.09.272 0 .227.18-.907 1.847-2.313 3.468-3.583 5.089-1.406 1.802-2.721 3.693-4.263 5.359-.317.361-.862-.09-.635-.45zm7.529-32.47c-1.633.946-3.311 1.756-4.99 2.612-1.677.81-3.355 1.801-5.078 2.477-.409.135-.635-.225-.227-.451 1.587-.99 3.401-1.71 5.08-2.522 1.677-.81 3.4-1.62 5.124-2.341.272-.18.408.045.09.225zm-12.472 6.395c-1.633 1.261-3.583 2.116-5.442 3.062-2.041 1.036-4.037 2.162-6.168 3.018-.454.18-.771-.451-.363-.676 1.95-1.171 4.082-2.117 6.123-3.107 1.859-.901 3.718-1.937 5.714-2.522.181-.045.272.135.136.225zm-2.268-20.401c-.453-.045-.453-.495 0-.54 1.86-.18 3.81-.09 5.67-.09 1.904 0 3.763 0 5.668.09.318 0 .363.27 0 .315a78.6 78.6 0 01-5.669.18c-1.905.09-3.81.225-5.669.045zm-2.72.225c-1.996.406-4.173.36-6.214.406-2.313.044-4.58.18-6.893.044-.454-.044-.5-.72 0-.765 2.267-.225 4.58-.135 6.893-.135 2.086 0 4.218-.135 6.259.225.09-.045.09.18-.046.225zm85.85-1.486c1.859-.045 3.809-.18 5.668 0 .454.045.454.495 0 .54-1.859.18-3.809.09-5.668.09-1.905 0-3.765 0-5.669-.09-.318 0-.363-.27 0-.315 1.859-.135 3.764-.18 5.669-.225zm-28.21 43.459c.046.45-.362.54-.543.135-.59-1.757-.907-3.648-1.316-5.449-.408-1.847-.816-3.648-1.179-5.495-.045-.315.182-.36.273-.045.544 1.802.997 3.603 1.45 5.45.454 1.756 1.044 3.602 1.316 5.404zm13.652-36.073c0 13.87-11.338 25.084-25.261 25.084-13.968 0-25.26-11.259-25.26-25.084 0-7.566 3.355-14.321 8.707-18.96-1.542 2.702-2.404 5.855-2.404 9.187 0 10.403 8.48 18.825 18.957 18.825 10.476 0 18.957-8.422 18.957-18.825 0-3.332-.862-6.44-2.404-9.187 5.352 4.639 8.708 11.394 8.708 18.96zM52.382 31.569c1.905 0 1.905 2.928 0 2.928-1.95 0-1.905-2.928 0-2.928zm-23.99 24.95c.135-.045.226-.09.362-.135 1.587-.406 2.721-1.126 3.719-1.982.861-.766 1.134-1.621 1.134-2.522 0-.27-.273-1.621.498-1.486.545.135.363 1.396.409 1.711.453 1.847 2.086 3.288 4.807 3.918.272.045.77 0 .77.316 0 .18-.362.27-.634.315-2.993.765-4.218 2.657-4.717 4.548-.09.316-.09.676-.09.991 0 .36-1.089.45-1.043.09.181-1.26-.091-1.936-.363-2.747-.454-1.396-2.041-2.117-4.218-2.567-.227-.045-.453-.09-.635-.18a.14.14 0 010-.27zm47.8-27.066c.136-.045.226-.09.363-.136 1.587-.405 2.72-1.125 3.718-1.981.862-.766 1.134-1.621 1.134-2.522 0-.27-.272-1.621.499-1.486.544.135.363 1.396.408 1.711.454 1.847 2.086 3.288 4.807 3.918.273.045.771 0 .771.316 0 .18-.362.27-.635.315-2.993.765-4.217 2.657-4.716 4.548-.09.316-.09.676-.09.991 0 .36-1.09.45-1.044.09.181-1.26-.09-1.936-.363-2.747-.453-1.396-2.04-2.117-4.217-2.567-.227-.045-.454-.09-.635-.18-.136 0-.136-.18 0-.27zM98.595 53.5c.136-.045.227-.09.363-.135 1.587-.405 2.721-1.126 3.719-1.981.862-.766 1.134-1.622 1.134-2.522 0-.27-.272-1.621.499-1.486.544.135.362 1.396.408 1.71.453 1.847 2.086 3.288 4.807 3.919.272.045.771 0 .771.315 0 .18-.363.27-.635.315-2.993.766-4.218 2.657-4.716 4.549-.091.315-.091.675-.091.99 0 .361-1.089.451-1.043.09.181-1.26-.091-1.936-.363-2.746-.454-1.396-2.041-2.117-4.218-2.567-.227-.045-.453-.09-.635-.18-.136-.045-.181-.18 0-.27zm-34.512 7.341c4.989 1.306 5.397 8.512 5.397 8.602 0 .405.362.72.77.72.409 0 .772-.315.772-.72 0-.09.362-7.296 5.396-8.602.318-.09.59-.405.59-.72 0-.36-.227-.631-.59-.721-4.988-1.306-5.396-8.512-5.396-8.602 0-.405-.363-.72-.771-.72-.409 0-.771.315-.771.72 0 .09-.363 7.296-5.397 8.602-.318.09-.59.405-.59.72 0 .316.272.631.59.721zm6.168-6.08c.635 1.937 1.814 4.099 3.945 5.314-2.131 1.216-3.31 3.378-3.945 5.315-.635-1.937-1.814-4.099-3.946-5.315 2.132-1.215 3.265-3.377 3.946-5.314z" fill="#BFA071"/></svg>