<svg width="140" height="224" fill="none" xmlns="http://www.w3.org/2000/svg"><path d="M140 110.786a1176.35 1176.35 0 00-.448-28.11c-.224-7.834-.761-15.623-2.374-23.322-3.047-14.458-9.274-28.603-19.443-39.524C107.072 8.37 92.154 1.477 76.563.224 60.793-1.074 44.621 3.447 31.898 12.89 19.89 21.844 11.02 34.467 6.183 48.567.807 64.144.09 80.84.09 97.178V171.662c0 2.999 0 5.998.045 8.997 0 2.865.044 5.73.044 8.594 0 2.686.045 5.327.09 8.013.045 2.417.045 4.834.09 7.251l.134 6.312c.045 1.745.09 3.491.18 5.237.044 1.298.089 2.641.178 3.939.045.85.09 1.656.224 2.506.045.359.09.806.404 1.03.403.269 1.254.179 1.702.179l3.942.134c2.644.045 5.287.045 7.93.045H124.32c4.57 0 14.56 0 14.829-.269.09 0 .224-.895.179-.895 0-18.576.224-37.152.448-55.728.135-18.8.314-37.511.224-56.221zM1.792 175.422c.224 1.388.627 2.775.986 4.118.717 2.507 1.433 5.058 1.075 7.699-.18 1.343-.762 2.596-1.747 3.85l-.09.089c-.045-5.282-.134-10.519-.224-15.756zm14.874 46.91c-4.794 0-9.587-.044-14.381.224 0-2.954-.045-5.908-.045-8.863l.538 2.149c.313 1.298.672 2.641 1.03 3.939.224.761.448 1.567.672 2.372h.986c-.627-2.148-1.21-4.342-1.792-6.49-.493-1.835-.986-3.715-1.523-5.551-.045-5.774-.135-11.593-.18-17.457.09-.179.224-.313.314-.447.134-.224.314-.448.493-.627.313-.403.627-.851.896-1.298 1.926-3.447.896-7.207-.135-10.877-.492-1.746-.94-3.402-1.075-5.014-.313-3.043.717-5.684 2.867-7.699 1.344-1.208 2.823-2.283 4.256-3.267 1.344-.94 2.688-1.88 3.943-2.999a19.428 19.428 0 005.51-8.281c.807-2.373 1.3-4.924 1.792-7.386.314-1.611.627-3.312 1.075-4.924 1.21-4.745 3.136-8.057 5.87-10.161 1.478-1.164 3.18-2.059 4.793-2.954 1.299-.716 2.688-1.432 3.942-2.328 1.479-1.029 2.643-2.103 3.495-3.357 1.21-1.701 1.881-3.805 2.419-5.774l.09-.358c.492-1.97 1.03-3.984 1.926-5.819.806-1.701 1.881-3.268 3.136-4.7 4.166-4.7 10.483-7.52 18.816-8.37 7.974-.851 15.142-.09 21.325 2.237.582.224 1.12.448 1.657.672-.537-.09-1.12-.135-1.613-.135-1.836-.089-3.852.09-6.316.493-4.167.671-8.647 1.835-14.068 3.626l-.985.313c-3.674 1.209-7.437 2.462-10.573 4.789a23.703 23.703 0 00-6.048 6.76c-1.568 2.64-2.42 5.505-3.315 8.683-.896 3.178-1.837 6.133-4.256 7.744-.493.358-1.075.627-1.613.895-.851.448-1.702.851-2.42 1.567-.895.851-1.567 1.97-2.015 3.447-.493 1.701-.672 3.536-.807 5.282-.09 1.208-.179 2.417-.403 3.581-.537 2.954-2.06 5.461-3.629 7.743-.268.403-.537.761-.806 1.164-1.344 1.88-2.688 3.85-3.584 6.043-.986 2.551-1.03 5.327-.134 8.594.134.537.313 1.075.448 1.567.761 2.596 1.568 5.282.85 8.057-.492 1.925-1.657 3.447-2.777 4.924-.717.94-1.478 1.925-2.06 3.044-1.3 2.462-1.927 5.685-1.882 9.847.045 3.492.582 6.849 1.075 9.669 1.075 5.953 2.554 11.056 4.525 15.577h.806c-1.433-3.312-2.688-6.983-3.673-11.101a77.41 77.41 0 01-1.703-9.445c-.493-4.162-.403-7.475.224-10.429.403-1.791.941-3.268 1.747-4.521a26.622 26.622 0 011.568-2.149c.359-.447.717-.94 1.076-1.432.985-1.432 1.657-2.775 1.926-4.163.269-1.343.269-2.865 0-4.521-.224-1.164-.582-2.372-.896-3.491-.538-1.88-1.12-3.805-1.12-5.819 0-3.044 1.523-5.685 2.822-7.655.493-.761 1.03-1.477 1.524-2.193 1.075-1.522 2.195-3.133 3.046-4.834 1.344-2.641 1.658-5.416 1.882-8.236v-.224c.224-2.731.492-5.819 2.508-7.699.672-.627 1.524-1.03 2.285-1.433.672-.313 1.344-.671 1.927-1.119.985-.716 1.836-1.745 2.508-3.044.941-1.79 1.479-3.849 2.016-5.774.224-.85.493-1.746.762-2.596.94-3.044 2.509-5.909 4.525-8.236 2.016-2.373 4.435-4.253 7.078-5.461 1.344-.627 2.823-1.164 4.211-1.656l.538-.179c4.749-1.746 9.05-2.999 13.126-3.939 2.51-.582 4.75-.985 6.765-1.164 1.658-.18 3.584-.314 5.466.044.493.09.94.224 1.344.403-.717.314-1.12 1.209-1.434 2.015-.134.358-.313.671-.448.94-.806 1.253-2.195 1.611-3.539 2.014-.269.089-.582.134-.851.224-.672.224-1.523.492-2.285 1.074-.851.627-1.478 1.432-2.106 2.193-1.12 1.478-2.553 3.134-4.3 4.611a20.688 20.688 0 01-6.093 3.491c-.045 0-.09.045-.09.09-1.165.313-2.33.403-3.494.537-1.703.179-3.495.313-5.107 1.074-1.21.537-2.106 1.477-3.002 2.373-.493.537-1.03 1.074-1.613 1.522-.94.76-1.971 1.342-2.957 1.969-.582.358-1.21.716-1.792 1.074-1.747 1.164-3.046 2.462-3.987 4.029-.94 1.567-1.613 3.357-2.285 5.103-.09.268-.224.537-.313.805-1.568 4.074-3.136 8.416-3.495 13.071-.179 2.104 0 4.252.135 6.356.179 2.731.358 5.551-.135 8.326-.224 1.208-.537 2.462-.85 3.626-.762 2.999-1.524 6.087-1.031 9.31.269 1.656.761 3.223 1.254 4.745.135.492.314.94.448 1.432.717 2.462 1.03 4.611.896 6.759-.134 2.82-.896 5.551-1.613 8.192-.492 1.79-.985 3.67-1.299 5.55-1.21 7.162.493 14.234 2.688 19.83H31.943c-5.197-.135-10.215-.135-15.277-.135zm37.811-53.669c-.224-1.746-.806-3.402-1.389-4.924l-.672-1.746c-1.03-2.596-2.105-5.282-2.464-8.102-.313-2.327-.269-5.058.09-8.37.313-2.999 1.03-6.088 2.15-9.4.224-.671.493-1.343.717-2.014 1.434 2.238 3.718 3.804 5.78 5.013-.046.045-.046.09-.09.134-1.255 7.565-2.733 16.159-1.165 24.53.179.895.358 1.79.582 2.686.224 1.074.493 2.148.672 3.222.269 1.612.403 3.268.493 4.835l.045.895c.134 1.611.269 3.491.627 5.327.314 1.701.851 3.357 1.658 5.058 1.881 3.939 4.39 7.475 6.854 10.922 1.478 2.059 2.957 4.162 4.3 6.311 2.017 3.223 3.271 5.953 4.033 8.639.761 2.641 1.254 5.64 1.478 9.131.045.493.045 1.03.09 1.522h-15.59c-.135-3.133-.493-6.401-.986-9.892-.493-3.447-1.165-7.072-2.375-10.609-.672-1.924-1.478-3.804-2.24-5.64-.537-1.253-1.075-2.506-1.568-3.804-1.12-2.91-2.33-6.267-2.419-9.758-.045-2.059.314-4.163.672-6.133.18-1.074.403-2.148.538-3.267.313-1.657.313-3.179.179-4.566zm84-14.055c-.224 18.352-.538 36.704-.672 55.057-.045 4.252-.045 8.549-.045 12.802-3.942-.314-7.929-.135-11.872-.135H78.983c-.314-6.714-1.524-11.996-3.898-16.472-1.792-3.402-3.987-6.49-6.182-9.534-1.748-2.462-3.584-5.014-5.152-7.655-.986-1.656-1.703-3.088-2.285-4.476-.627-1.477-1.03-3.223-1.3-5.416 1.613-1.029 3.092-2.372 4.391-3.536a88.222 88.222 0 004.614-4.566c2.688-2.865 5.332-6.043 8.02-9.758.582-.806 1.21-1.656 1.97-2.372 1.166-1.119 2.151-1.567 3.72-1.164 1.926.492 3.942.85 5.958.94h.985c1.344 0 2.643-.134 3.898-.358h.09c1.164-.224 2.643-.493 3.36-1.746.582-1.029.313-2.283.044-3.357l-.045-.224c-.134-.582-.268-1.164-.224-1.79.045-.806.493-1.478.986-2.149.18-.224.358-.403.538-.627.582-.626 1.164-1.298 1.075-2.372-.09-.627-.314-.895-.672-1.343-.09-.134-.09-.179-.09-.179 0-.045.135-.134.224-.179.045-.045.09-.045.135-.089.224-.135.358-.314.492-.538.404-.716.135-1.611-.09-2.417-.044-.179-.089-.313-.134-.447-.134-.448-.268-1.03-.134-1.567.134-.492.538-.761.986-1.03a1.95 1.95 0 00.492-.358c2.285-1.88.538-5.595-.224-7.162-.179-.402-.403-.805-.582-1.208-1.254-2.552-2.42-4.969-2.24-7.923 0-.134.045-.269.045-.358.448 1.835 1.165 3.76 2.285 5.953 1.075 2.104 2.464 4.118 4.166 6.133 1.702 2.014 3.226 3.894 4.032 6.266.448 1.254.717 2.686.851 4.163-.493.582-1.12 1.03-1.971 1.209-.179.044-.269.224-.224.403.045.134.179.268.314.268h.089a4.204 4.204 0 001.882-.985c.045.627.045 1.298 0 1.97-.09 2.507-.583 4.879-1.075 7.341l-.135.716c-.045.179.09.269.179.313h.09c.09 0 .224-.089.269-.179.672-2.059 1.12-4.431 1.299-7.117.09-1.298.09-2.596 0-3.805 1.21-1.656 1.523-4.073 1.658-6.042.179-2.865.268-6.58-.538-10.206a18.107 18.107 0 00-1.658-4.611c-.761-1.387-1.702-2.596-2.688-3.76l-.403-.537a29.867 29.867 0 01-3.091-4.834l-.806-1.611a59.508 59.508 0 00-1.748-3.358c-1.478-2.551-4.032-6.087-7.75-8.504-.09-.045-.224-.045-.269.044-.09.09-.045.224.045.314 3.002 2.372 5.197 4.744 6.854 7.341.896 1.387 1.658 2.909 2.375 4.386.806 1.567 1.613 3.223 2.598 4.7.583.851 1.21 1.657 1.837 2.462.403.537.851 1.075 1.254 1.612 1.031 1.387 1.792 2.909 2.33 4.521.896 2.685 1.254 5.729 1.165 9.623v.448c-.045 2.149-.135 5.058-1.21 7.028a20.23 20.23 0 00-.403-2.283c-.582-2.238-1.613-4.253-3.27-6.222-.269-.358-.583-.716-.852-1.03-1.388-1.701-2.732-3.267-3.852-5.192-.672-1.164-1.3-2.462-1.882-3.76-.448-1.119-.851-2.328-1.21-3.447a7.767 7.767 0 00-.313-.94c0-.044-.045-.044-.045-.044.045-.269.045-.493.09-.761.134-1.119.313-2.238.313-3.402 0-1.701-.179-3.402-.582-5.058-.807-3.402-2.42-6.536-4.57-8.818-.134-.18-.358-.135-.493-.045-.134.134-.179.313-.044.492 1.97 2.328 3.36 4.969 4.121 7.833.762 2.82.896 5.775.403 9.087-.224 1.656-.403 3.178-.179 4.745.269 1.522.851 2.954 1.389 4.118.224.492.493.985.717 1.477.403.806.851 1.701 1.209 2.552.493 1.208 1.031 2.73.538 4.073-.224.582-.672.895-1.12 1.253-.493.314-.986.672-1.21 1.298-.313.851-.044 1.746.135 2.552.045.134.09.268.09.403a3.536 3.536 0 00-1.479-.09c-.851.134-1.568.627-2.24 1.119l-.045.045c-.403.268-.806.582-1.254.85-1.165.806-2.33 1.612-3.405 2.552-.134.089-.134.313-.045.447.09.09.18.135.269.135.045 0 .09 0 .134-.045.583-.358 1.12-.716 1.703-1.119.224-.045.403-.045.627-.09.269-.044.493-.089.762-.134.492-.045 1.12-.134 1.702-.268.224-.045.448-.135.672-.224.224-.09.448-.179.717-.224.179-.045.403-.09.627-.045.18.045.269.09.403.179.045.045.09.045.135.09.044.044.09.134.134.179.045.089.134.134.18.224.134.134.223.223.268.358.134.268.134.761.045 1.074-.09.269-.269.492-.493.716h-.986c-.358 0-.761-.045-1.164-.089-.404-.045-.762-.135-1.165-.224-.18-.045-.359-.09-.538-.179l-.09-.045c-.134-.045-.313-.134-.492-.09-.135 0-.224.09-.269.224-.045.135-.045.224.045.314.224.268.672.358.985.447.045 0 .135.045.18.045.403.09.806.179 1.21.224.358.045.716.089 1.03.089h.537c-.403.493-.851 1.119-1.165 1.836-.403 1.074-.179 2.148.09 3.222l.045.09c.313 1.298.493 2.73-.851 3.402-1.3.671-2.957.761-4.57.85-3.091.135-6.451-.447-10.618-1.745-1.881-.582-3.718-1.298-5.286-1.88l-.717-.269c-2.777-1.029-5.107-1.656-6.451-4.521-.627-1.298-.94-2.775-1.254-4.163-.045-.134-.135-.179-.27-.179-.134 0-.223.134-.223.269.045 1.522.448 3.088 1.165 4.565.85 1.746 1.926 3 3.673 3.805.896.403 1.792.761 2.688 1.119 1.703.672 3.45 1.298 5.197 1.88.448.135.851.269 1.3.403-1.076.537-2.062 1.656-2.868 2.641-.582.761-1.12 1.522-1.658 2.283-.627.85-1.254 1.746-1.926 2.596a88.242 88.242 0 01-8.87 9.713c-.986.94-2.016 1.791-3.002 2.641a57.03 57.03 0 00-1.792 1.567 46.435 46.435 0 01-.269-3.447 19.452 19.452 0 01-.09-1.566 42.077 42.077 0 00-.806-5.595c-.09-.359-.134-.672-.224-.985-.358-1.656-.717-3.402-.94-5.148a46.83 46.83 0 01-.27-6.267c.09-4.386.717-8.773 1.3-12.533.179-.985.313-2.014.493-2.999.806.448 1.612.851 2.464 1.209l.358.134c.762.313 1.658.716 2.464.761h.045a.39.39 0 00.358-.269c.045-.179 0-.403-.179-.447-.493-.224-1.03-.403-1.523-.582-.359-.134-.717-.224-1.075-.358a15.073 15.073 0 01-2.688-1.343c-1.972-1.119-3.495-2.283-4.75-3.536-1.12-1.164-2.418-2.999-2.374-5.327.045-1.835 1.165-3.85 3.047-4.073.134 0 .224-.135.224-.269s-.09-.224-.224-.224c-1.3-.089-2.554.716-3.315 2.104-.717 1.343-.807 3.133-.224 4.879.179.493.403.985.672 1.433-2.375 4.968-3.584 11.011-3.495 17.546.045 1.88.18 3.313.493 4.655.403 1.791 1.03 3.492 1.568 4.924.18.493.403 1.03.627 1.522 1.075 2.641 2.15 5.416 2.15 8.415 0 1.97-.358 3.895-.716 5.775a42.557 42.557 0 00-.538 3.446c-.358 2.955.045 6.043 1.21 9.714.761 2.372 1.702 4.655 2.643 6.893.314.806.672 1.611.986 2.417a52.023 52.023 0 013.001 10.072c.851 4.744 1.389 9.176 1.568 13.383H42.963a38.226 38.226 0 01-1.612-4.834c-1.21-4.387-1.658-8.594-1.344-12.444.224-2.641.896-5.237 1.568-7.699.448-1.745.94-3.536 1.254-5.326.448-2.597.538-4.7.314-6.625-.224-1.746-.762-3.402-1.255-5.058-.09-.358-.224-.716-.313-1.075-.583-1.835-1.12-4.073-.986-6.356.09-2.059.627-4.118 1.12-6.087l.134-.582c.493-1.925 1.03-4.163 1.12-6.491.045-1.745-.044-3.491-.179-5.192l-.134-2.014c-.135-2.641 0-4.969.403-7.207.358-1.97.94-4.073 1.792-6.491a112.693 112.693 0 012.42-6.311c.716-1.746 1.657-3.715 3.225-5.148 1.12-1.029 2.419-1.835 3.718-2.596.359-.224.717-.403 1.03-.626.628-.403 1.434-.896 2.151-1.522.582-.448 1.075-.985 1.568-1.522l.672-.672c1.254-1.253 2.822-1.969 4.928-2.283.672-.089 1.389-.179 2.06-.268 1.031-.09 2.151-.224 3.182-.448.09 0 .179-.045.268-.089a.346.346 0 00.224.089c.045 0 .09 0 .135-.045 3.763-1.387 7.123-3.804 9.721-6.982.224-.314.493-.627.717-.896 1.075-1.387 2.061-2.685 3.674-3.312.493-.179 1.03-.358 1.523-.492.986-.269 2.016-.582 2.912-1.209.762-.582 1.165-1.343 1.478-2.014.045-.09.09-.224.135-.314.313-.805.672-1.611 1.478-1.79.09 0 .135-.045.224-.09.09-.134.045-.268-.045-.358-.179-.134-.403-.224-.627-.358-2.33-1.477-5.062-2.551-8.467-3.312-3.45-.761-7.168-1.164-11.066-1.164h-.044c-8.512 0-15.143 1.567-20.16 4.834-3.27 2.104-5.87 4.924-7.616 8.147-1.076 2.014-1.703 4.208-2.15 5.864l-.09.358c-.538 2.059-1.12 4.208-2.285 5.998-1.792 2.641-4.57 4.163-7.258 5.595-.358.179-.717.358-1.03.582-2.778 1.522-5.869 3.536-7.84 7.117-1.837 3.313-2.599 7.162-3.315 10.833-.852 4.431-1.792 8.997-4.525 12.623-1.837 2.372-4.256 4.118-6.586 5.819-.313.223-.582.447-.896.671l-.179.134c-2.554 1.88-5.197 3.76-6.003 7.162-.09.269-.135.537-.18.806-.044-1.656-.044-3.312-.089-4.969-.09-5.595-.18-11.235-.224-16.83 3.45-5.327 6.675-10.698 9.542-16.114 1.792-3.358 4.212-6.357 6.586-9.266 2.195-2.686 4.48-5.595 6.496-8.684a171.187 171.187 0 016.54-9.355c2.151-2.865 4.257-5.64 6.72-8.057 4.436-4.432 9.902-7.744 15.86-9.535 5.914-1.79 12.23-2.148 18.234-.94 6.048 1.209 11.872 3.94 16.755 7.923 1.21.985 2.419 2.104 3.629 3.357.09.09.268.09.358 0 .09-.09.134-.268 0-.358-4.39-4.79-9.9-8.37-16.038-10.43-5.87-1.969-12.23-2.461-18.413-1.476a39.16 39.16 0 00-17.203 7.385c-5.51 4.163-9.588 9.758-14.023 16.115a160.19 160.19 0 00-2.374 3.536c-1.255 1.88-2.509 3.805-3.898 5.64-.94 1.253-1.971 2.506-2.957 3.715-1.433 1.791-2.956 3.626-4.3 5.551-1.658 2.282-3.002 4.789-4.301 7.206a54.847 54.847 0 01-1.747 3.134c-1.703 2.954-3.54 5.998-5.51 8.997-.135-12.265-.225-24.485-.36-36.75C1.076 95.03.763 78.423 3.899 62.219c2.957-15.174 9.273-29.498 20.294-40.554C34.9 10.698 49.28 3.49 64.602 1.925c15.814-1.612 31.987 2.685 44.71 12.22 12.007 9.042 19.981 22.515 24.371 36.705 2.24 7.161 3.584 14.592 4.212 22.067.716 8.773.627 17.636.716 26.41.224 18.442.09 36.883-.134 55.281zm-39.917-11.28c-.179.134-.403.268-.537.537v.045a1.79 1.79 0 00-.672-.135c-.448 0-.852.135-1.255.269l-.224.089c-.627.224-1.299.314-1.926.403l-.314.045h-.134c.09-.045.134-.09.224-.179.403-.313.806-.582 1.21-.895.134-.09.268-.179.358-.269.537-.403 1.075-.806 1.657-.985a4.447 4.447 0 011.076-.134c.179 0 .358.09.582.134.09.045.224.045.358.09 0 .179 0 .358-.044.537 0 .224-.18.313-.359.448zm-6.765-18.8c.09.089.09.223 0 .313-.313.627-1.21.895-1.836 1.029a7.761 7.761 0 01-2.016.269h-.18c-1.568-.045-3.27-.448-4.659-1.164-.134-.089-.179-.224-.134-.358.045-.179.224-.224.358-.224.448.09.896.224 1.344.358.986.269 1.927.538 2.957.582a5.939 5.939 0 002.016-.223 4.57 4.57 0 00.94-.359l.046-.044v-.135-.134c0-.179-.045-.358-.09-.492a2.185 2.185 0 00-.18-.493l-.134-.268a.343.343 0 01-.09-.179.277.277 0 01.046-.314.29.29 0 01.268 0c.27.224.493.582.672 1.075.045.179.135.403.135.626v.09c.09-.045.134-.045.224-.045.134-.045.224 0 .313.09zm-2.688-7.744c-1.21.089-2.284.313-3.27.671-.134.045-.269.09-.403.179a13.15 13.15 0 01-1.21.448 2.693 2.693 0 01-1.03.045c-.224 0-.448-.045-.672 0-.135 0-.314.134-.359.268-.044.135 0 .269.09.403.314.313.717.403 1.12.403.538 0 1.075-.179 1.523-.313.269-.09.538-.224.851-.314.807-.313 1.524-.582 2.33-.716 1.12-.179 2.33-.179 3.45-.179h.313c.896 0 1.971 0 2.599.671.09.09.224.09.358.045.09-.089.134-.268.045-.358-.583-.85-1.479-1.029-2.285-1.119-1.3-.134-2.42-.179-3.45-.134zm5.645 1.253s0 .045 0 0zm1.658 19.74c.045 0 .134 0 .179-.045a1.87 1.87 0 01.627-.402c0 .134.045.223.135.313.403.313 1.03.134 1.344-.045.313-.179.582-.448.761-.761h.045v-.045c.045-.089.09-.179.09-.223.044-.09 0-.224-.045-.314-.045-.089-.18-.134-.269-.134h-.045c-1.165 0-2.24.492-2.912 1.343-.09.089-.09.268 0 .358-.045-.045 0-.045.09-.045zm2.016-.94c-.045.045-.09.045-.135.09-.134.044-.224.089-.358.134h-.18a2.38 2.38 0 01.673-.224zm-35.616-.627c.09.09.09.224.045.359-.18.313-.493.492-.852.581-.134.045-.268.045-.403.045-.403 0-.806-.134-1.165-.313-.358-.224-.582-.582-.85-1.03a2.346 2.346 0 00-.897-.85 5.321 5.321 0 00-.717-.358c-.448-.179-.896-.403-1.299-.761-.717-.582-.985-1.612-.717-2.552.224-.85.986-1.611 1.927-1.477.134 0 .224.135.269.269 0 .134-.09.268-.18.268a1.808 1.808 0 00-1.12.94c-.179.403-.224.851-.044 1.299.268.671.94.984 1.568 1.298.09.044.179.089.224.134.313.179.672.358.985.627.269.223.448.537.627.85.09.134.135.224.224.358.224.358.583.582.986.582.358.045.627-.089.94-.224l.18-.089c.045-.09.18-.045.269.044zm34.989-87.509c1.792 4.029 1.926 8.505 1.164 12.802a31.636 31.636 0 01-5.465 13.026C87.584 82.63 78.13 87.15 68.05 86.21c-9.945-.94-19.353-6.893-24.595-15.353-2.643-4.208-3.987-8.997-3.718-13.966.269-5.058 1.792-10.205 4.659-14.413.358-.537.269.403.224.582-.134.537-.314 1.119-.448 1.7-.314 1.12-.358 2.328-.448 3.492-.09 2.417.134 4.835.672 7.162 1.344 5.909 4.57 11.46 9.408 15.175 7.974 6.087 19.622 7.161 28.448 2.282 4.883-2.73 8.87-7.027 11.2-12.13 1.21-2.686 2.016-5.595 2.24-8.505.09-1.477.045-2.999-.18-4.431-.134-.761-.358-1.477-.537-2.238-.045-.269-.134-.493-.179-.761-.045-.135 0-1.433.314-.94.985 1.566 1.926 3.133 2.688 4.834zm-35.034-5.774c4.211 0 7.66-3.447 7.66-7.655 0 4.208 3.45 7.655 7.662 7.655-4.212 0-7.661 3.446-7.661 7.654a7.654 7.654 0 00-7.661-7.654zm55.642 151.743c-13.261 0-13.261 0-13.261 15.845 0-15.845 0-15.845-13.261-15.845 13.261 0 13.261 0 13.261-15.846 0 15.846 0 15.846 13.261 15.846zm-1.21-118.038c0-.805.896-1.611 1.702-1.611.762 0 1.658.806 1.568 1.611 0 .85-.806 1.657-1.657 1.701-.762 0-1.613-.85-1.613-1.7zm4.39 86.57c0 .85-.806 1.656-1.657 1.701-.807 0-1.658-.851-1.658-1.701 0-.806.851-1.612 1.703-1.612.806 0 1.702.806 1.612 1.612zM21.639 67.009c0 .85-.807 1.656-1.658 1.7-.806 0-1.658-.85-1.658-1.7 0-.806.852-1.612 1.703-1.612.806 0 1.702.806 1.613 1.612zm34.316-49.955c0-.805.852-1.611 1.703-1.611.761 0 1.657.806 1.568 1.611 0 .85-.807 1.657-1.658 1.701-.761.045-1.613-.85-1.613-1.7zm47.757 10.967c0 .85-.806 1.656-1.657 1.7-.807 0-1.658-.85-1.658-1.7 0-.806.896-1.611 1.702-1.611.807 0 1.703.805 1.613 1.611z" fill="#C9A681"/></svg>