<svg width="60" height="60" fill="none" xmlns="http://www.w3.org/2000/svg"><path d="M30 0C13.458 0 0 13.458 0 30s13.458 30 30 30 30-13.458 30-30S46.542 0 30 0zm-7.243 16.849c1.827-1.937 4.399-3.003 7.243-3.003 2.844 0 5.393 1.073 7.227 3.02 1.86 1.973 2.764 4.624 2.55 7.474C39.35 30 34.966 34.615 30 34.615c-4.966 0-9.36-4.615-9.777-10.276-.212-2.873.69-5.533 2.534-7.49zM30 55.385a25.31 25.31 0 01-18.173-7.676 17.726 17.726 0 015.068-4.823c3.677-2.357 8.33-3.655 13.105-3.655 4.776 0 9.428 1.298 13.1 3.655a17.72 17.72 0 015.073 4.823A25.306 25.306 0 0130 55.385z" fill="currentColor"/></svg>