<svg width="60" height="60" fill="none" xmlns="http://www.w3.org/2000/svg"><path d="M29.112 35.446c-3.781-3.032-6.305-6.773-7.633-8.902l-.99-1.82c.346-.362 2.986-3.12 4.13-4.615 1.438-1.878-.647-3.574-.647-3.574s-5.864-5.72-7.2-6.855c-1.337-1.136-2.876-.505-2.876-.505-2.81 1.77-5.721 3.309-5.896 10.71-.007 6.93 5.387 14.077 11.22 19.61C25.063 45.744 33.084 52.007 40.84 52c7.588-.169 9.165-3.008 10.98-5.748 0 0 .648-1.5-.516-2.804-1.165-1.304-7.031-7.025-7.031-7.025s-1.738-2.033-3.664-.63c-1.436 1.047-4.014 3.374-4.635 3.939.001.002-4.31-2.24-6.862-4.286z" fill="#B689BD"/></svg>