<svg width="47" height="47" fill="none" xmlns="http://www.w3.org/2000/svg"><g clip-path="url(#clip0_41_745)"><path d="M5.875 0h35.25C44.356 0 47 2.644 47 5.875v35.25C47 44.356 44.356 47 41.125 47H5.875C2.644 47 0 44.356 0 41.125V5.875C0 2.644 2.644 0 5.875 0z" fill="url(#paint0_linear_41_745)"/><path d="M31.137 7.344H15.864c-4.7 0-8.52 3.965-8.52 8.665v14.982c0 4.7 3.82 8.665 8.52 8.665h15.274c4.7 0 8.52-3.965 8.52-8.665V16.009c0-4.7-3.82-8.665-8.52-8.665zm5.582 23.353c0 3.231-2.644 6.022-5.875 6.022H16.156c-3.231 0-5.875-2.79-5.875-6.022v-14.54c0-3.232 2.497-5.876 5.875-5.876h14.688c3.231 0 5.875 2.79 5.875 6.022v14.394z" fill="#fff"/><path d="M23.5 15.275c-4.554-.147-8.372 3.525-8.52 8.078-.146 4.553 3.526 8.372 8.079 8.519 4.553.147 8.372-3.525 8.519-8.078v-.147c.147-4.7-3.525-8.372-8.078-8.372zm0 13.513c-2.938 0-5.435-2.35-5.435-5.288s2.35-5.434 5.288-5.434c2.937 0 5.434 2.35 5.434 5.287v.147a5.266 5.266 0 01-5.287 5.288zM32.018 16.597c.974 0 1.763-.855 1.763-1.91 0-1.054-.79-1.909-1.763-1.909-.973 0-1.762.855-1.762 1.91 0 1.054.789 1.909 1.762 1.909z" fill="#fff"/></g><defs><linearGradient id="paint0_linear_41_745" x1="8.524" y1="49.439" x2="38.476" y2="-2.439" gradientUnits="userSpaceOnUse"><stop stop-color="#FEC053"/><stop offset=".327" stop-color="#F2203E"/><stop offset=".648" stop-color="#B729A8"/><stop offset="1" stop-color="#5342D6"/></linearGradient><clipPath id="clip0_41_745"><path fill="#fff" d="M0 0h47v47H0z"/></clipPath></defs></svg>