<svg width="60" height="60" fill="none" xmlns="http://www.w3.org/2000/svg"><path d="M24.32 16.153l-.478.514-2.405 2.51-.463-.229a13.346 13.346 0 00-5.742-1.288c-7.639 0-13.357 6.162-13.357 13.357 0 7.222 5.86 13.358 13.357 13.358 3.632 0 7.232-1.572 9.655-4.127l6.604-6.97 7.415-7.869c1.522-1.616 3.637-2.406 5.713-2.406 4.377 0 8.015 3.515 8.015 8.014 0 4.285-3.487 8.015-8.015 8.015-2.515 0-4.02-.786-6.002-2.743l-.916-.937-.866-.915-1.004-1.087a.668.668 0 00-.978-.007l-2.741 2.899a.668.668 0 00-.002.916l2.596 2.77.35.357c.457.457.922.875 1.426 1.273 2.257 1.776 4.912 2.817 8.137 2.817 7.567 0 13.358-6.17 13.358-13.358 0-7.279-5.86-13.357-13.358-13.357-3.756 0-7.293 1.543-9.916 4.381l-3.145 3.394-3.606 3.853-6.934 7.268c-1.593 1.67-3.615 2.476-5.786 2.476-4.544 0-8.014-3.72-8.014-8.015 0-4.299 3.463-8.014 8.014-8.014l.315.006a8.784 8.784 0 011.65.223l.245.065-2.436 2.431-.352.355a.668.668 0 00.41 1.134l7.912.766 2.197.198c.4.034.739-.29.724-.69l-.419-10.908a.668.668 0 00-1.158-.43z" fill="#B689BD"/></svg>