<svg width="60" height="60" fill="none" xmlns="http://www.w3.org/2000/svg"><path d="M32 47v6c.252-.055.495-.151.722-.286.306-.177.58-.42.806-.714.155-.222.275-.474.352-.745.066-.193.105-.396.118-.603v-.018c.024-1.207-.176-2.077-.614-2.663-.314-.417-.77-.736-1.384-.971zM47.332 30v-7.779l4.559 4.508a1.555 1.555 0 001.099.45 1.572 1.572 0 001.099-.45 1.535 1.535 0 00.455-1.085 1.517 1.517 0 00-.455-1.085l-7.218-7.127a1.61 1.61 0 00-2.198 0l-7.217 7.125a1.525 1.525 0 000 2.171 1.565 1.565 0 002.198.001l4.572-4.508v7.78c-1.701.212-3.337.778-4.8 1.66a17.517 17.517 0 017.016 10.119 17.319 17.319 0 01-1.423 12.182c.253.016.506.038.764.038a12.289 12.289 0 008.358-3.256 11.985 11.985 0 003.834-8.023 11.947 11.947 0 00-2.769-8.44 12.245 12.245 0 00-7.87-4.28h-.004zM27.007 41.277c.031.3.099.595.2.88.113.27.286.513.507.711.345.312.736.571 1.16.769.358.165.737.288 1.126.363v-6c-.908.145-1.618.476-2.118.988-.304.299-.54.657-.69 1.052-.151.395-.214.817-.185 1.237zM19.695 31.661a11.314 11.314 0 00-4.571-1.66v-7.78l4.343 4.508c.278.289.655.451 1.048.452.393 0 .77-.16 1.05-.449.278-.288.434-.679.435-1.087 0-.407-.155-.799-.433-1.087l-6.88-7.126A1.494 1.494 0 0013.64 17c-.389 0-.764.154-1.046.432L5.72 24.558a1.564 1.564 0 00-.434 1.085c0 .407.156.798.434 1.086.277.288.654.45 1.047.45.392 0 .77-.162 1.047-.45l4.341-4.508v7.78c-2.932.386-5.612 1.917-7.495 4.28-1.882 2.363-2.825 5.381-2.636 8.44.188 3.058 1.494 5.927 3.65 8.023 2.158 2.095 5.004 3.26 7.96 3.256.246 0 .487-.022.728-.038a18.098 18.098 0 01-1.355-12.183c.979-4.098 3.352-7.691 6.683-10.12l.005.002z" fill="#B689BD"/><path d="M31.477 31.59V5.138l7.358 7.49a1.475 1.475 0 001.045.44 1.455 1.455 0 001.046-.44 1.506 1.506 0 00.432-1.064 1.527 1.527 0 00-.432-1.063L31.046.44A1.474 1.474 0 0030 0a1.455 1.455 0 00-1.046.441l-9.883 10.057a1.518 1.518 0 00-.433 1.063c0 .4.155.782.433 1.064.277.282.653.44 1.045.44.392 0 .768-.158 1.045-.44l7.361-7.486v26.45a13.928 13.928 0 00-9.175 4.922 14.404 14.404 0 00-3.328 9.996 14.352 14.352 0 004.346 9.583A13.872 13.872 0 0030 60c3.585 0 7.033-1.4 9.635-3.91a14.352 14.352 0 004.345-9.583 14.404 14.404 0 00-3.328-9.996 13.928 13.928 0 00-9.175-4.922zm4.982 18.912c-.071 1.042-.512 2.031-1.309 2.923-.694.782-1.722 1.282-3.06 1.49v.697a1.26 1.26 0 01-.483 1.033c-.24.19-.535.293-.84.295a1.317 1.317 0 01-.838-.31 1.27 1.27 0 01-.432-1.018v-.66c-1.39-.137-2.613-.54-3.64-1.199-1.255-.82-2.03-2.006-2.313-3.542a1.046 1.046 0 01.217-.955 1.01 1.01 0 01.906-.334c.631.015 1.103.42 1.172 1.027.168.69.593 1.325 1.284 1.856.566.435 1.363.715 2.373.836v-6.01c-1.365-.161-2.6-.661-3.541-1.462a5.345 5.345 0 01-1.788-3.524 5.014 5.014 0 01.308-2.27 5.236 5.236 0 011.229-1.838 5.644 5.644 0 011.976-1.23 7.76 7.76 0 011.818-.436v-.748a1.312 1.312 0 01.39-.97 1.295 1.295 0 011.745-.05 1.31 1.31 0 01.467 1.02v.888a5.436 5.436 0 012.756 1.485c.911.914 1.395 2.146 1.434 3.656-.15.797-.553 1.209-1.096 1.278-.542.07-1.132-.244-1.221-1.052a5.05 5.05 0 00-.218-1.064 2.762 2.762 0 00-.491-.9c-.25-.31-.544-.58-.872-.803a2.298 2.298 0 00-.292-.17v6.23c.72.157 1.408.436 2.036.827a5.117 5.117 0 011.538 1.469c.352.548.59 1.164.702 1.81.109.568.138 1.149.086 1.725h-.003z" fill="#B689BD"/></svg>