<svg width="47" height="47" fill="none" xmlns="http://www.w3.org/2000/svg"><g clip-path="url(#clip0_41_741)"><path d="M47 36.453C47 42.282 42.273 47 36.453 47H10.547C4.727 47 0 42.273 0 36.453V10.547C0 4.727 4.728 0 10.547 0h25.905C42.273 0 47 4.728 47 10.547v25.905z" fill="#5EBEE1"/><path d="M35.167 12.31l-24.491 9.538c-.79.312-.744 1.45.073 1.69l6.224 1.835 2.323 7.371c.238.772 1.22 1 1.78.423L24.3 29.88l6.315 4.636c.771.57 1.873.147 2.066-.79l4.176-19.993c.212-.973-.752-1.79-1.689-1.423zm-3.066 4.434L20.728 26.805a.635.635 0 00-.202.386l-.44 3.892c-.02.128-.194.147-.23.018l-1.8-5.81a.607.607 0 01.267-.698l13.43-8.335c.302-.175.624.248.348.486z" fill="#fff"/></g><defs><clipPath id="clip0_41_741"><path fill="#fff" d="M0 0h47v47H0z"/></clipPath></defs></svg>