<svg width="47" height="47" fill="none" xmlns="http://www.w3.org/2000/svg"><g clip-path="url(#clip0_41_750)"><path d="M38.775 0H8.225A8.225 8.225 0 000 8.225v30.55A8.225 8.225 0 008.225 47h30.55A8.225 8.225 0 0047 38.775V8.225A8.225 8.225 0 0038.775 0z" fill="#4489C8"/><path d="M7.064 14.518h5.64a.58.58 0 01.543.375c.624 1.608 3.217 7.901 5.589 8.415 1.762 0 1.138-8.371-1.102-8.371-.587 0 1.043-1.043 1.153-1.087 2.082-.57 4.278-.57 6.36 0 1.123.47 1.314 1.784 1.344 2.9.03 1.117-1.249 5.876.433 6.39 2.203.675 5.038-6.235 5.699-7.932a.58.58 0 01.543-.367h6.28a.587.587 0 01.543.815 54.886 54.886 0 01-4.634 8.46 1.168 1.168 0 00.117 1.47c1.88 2.011 7.02 7.71 4.083 7.71h-6.337a1.153 1.153 0 01-.867-.39c-.984-1.086-3.848-4.112-5.14-3.87-1.073.199-1.175 2.02-1.124 3.21A1.175 1.175 0 0125.1 33.48a57.19 57.19 0 01-2.798.088c-4.48-.287-7.13-3.276-9.664-6.61a41.368 41.368 0 01-6.132-11.661.595.595 0 01.558-.779z" fill="#fff"/></g><defs><clipPath id="clip0_41_750"><path fill="#fff" d="M0 0h47v47H0z"/></clipPath></defs></svg>