<svg width="47" height="47" fill="none" xmlns="http://www.w3.org/2000/svg"><g clip-path="url(#clip0_41_736)"><path d="M38.775 0H8.225A8.225 8.225 0 000 8.225v30.55A8.225 8.225 0 008.225 47h30.55A8.225 8.225 0 0047 38.775V8.225A8.225 8.225 0 0038.775 0z" fill="url(#paint0_linear_41_736)"/><path d="M20.137 15.701l1.47 3.988a.559.559 0 01-.074.543 7.58 7.58 0 01-1.087 1.256.587.587 0 00-.118.8c.904 1.212 3.246 4.15 6.294 5.2a.58.58 0 00.653-.213l1.22-1.623a.588.588 0 01.734-.169l3.819 1.91a.58.58 0 01.293.734c-.418 1.19-1.733 4.09-4.545 3.62a15.268 15.268 0 01-9.408-5.31c-2.306-2.878-6.859-10.28.14-11.118a.587.587 0 01.61.382z" fill="#fff"/><path d="M24.675 40.243a17.781 17.781 0 01-8.769-2.298l-8.812 2.262 3.238-7.278a16.157 16.157 0 01-2.989-9.43c0-9.23 7.777-16.743 17.332-16.743 9.554 0 17.33 7.512 17.33 16.744 0 9.23-7.776 16.743-17.33 16.743zm-8.306-5.456l.536.33a14.782 14.782 0 007.77 2.204c7.938 0 14.393-6.191 14.393-13.807 0-7.615-6.455-13.82-14.393-13.82-7.939 0-14.394 6.19-14.394 13.806a13.314 13.314 0 002.937 8.327l.551.698-2.65 4.495 5.25-2.233z" fill="#fff"/></g><defs><linearGradient id="paint0_linear_41_736" x1="23.5" y1="2.938" x2="23.5" y2="47.595" gradientUnits="userSpaceOnUse"><stop stop-color="#1DF47C"/><stop offset=".31" stop-color="#12DF63"/><stop offset=".75" stop-color="#05C443"/><stop offset="1" stop-color="#00BA37"/></linearGradient><clipPath id="clip0_41_736"><path fill="#fff" d="M0 0h47v47H0z"/></clipPath></defs></svg>