<svg width="146" height="51" fill="none" xmlns="http://www.w3.org/2000/svg"><path d="M19.529 36l-2.373-5.878H9.718L7.418 36H7l6.66-17h.517L21 36h-1.471zm-9.687-6.143h7.214l-3.657-9.108-3.557 9.108zM22 31.863l.72-.784c.446-.478.82-.524.797.19.14 2.116 1.505 3.258 3.808 3.424 3.522.24 6.015-1.853 5.146-4.4-1.034-3.207-10.198-3.95-9.87-8.613.165-2.404 2.726-3.952 5.898-3.64a7.659 7.659 0 014.3 1.973l-.47.93c-.19.212-.446.07-.518-.263-.423-1.428-1.692-2.212-3.312-2.331-2.654-.24-4.77.927-4.96 2.83-.327 4.33 8.46 3.975 10.175 8.16 1.27 3.186-1.83 5.949-6.412 5.637-2.32-.163-4.318-1.306-5.302-3.113zM49 19.268h-5.698V36h-1.334V19.268H36V19h13v.268zM61.781 35l-4.54-8c-1.52.432-3.212.791-4.901 1.368V35H51V18.178h1.278c3.253 0 9.057-1.248 9.997 2.861.412 1.766-.07 3.238-1.544 4.398a8.25 8.25 0 01-2.51 1.25L63 35h-1.219zm-9.441-7.04c2.825-1.01 6.084-1.443 7.628-3.077 1.015-1.056 1.136-2.33.92-3.458-.654-3.22-5.265-2.908-8.548-2.908v9.442zM65 26.474C65 21.625 68.634 18 73.501 18 78.37 18 82 21.625 82 26.474S78.37 35 73.501 35C68.634 35 65 31.349 65 26.474zm15.04-2.847c-2.181-4.286-6.734-6.057-10.318-4.427-3.438 1.529-4.746 6.005-2.761 10.173 2.076 4.309 6.612 6.057 10.293 4.355 3.438-1.506 4.787-5.959 2.785-10.1zM90.003 32.908a3 3 0 015.15-1.997A3 3 0 0193.002 36a2.966 2.966 0 01-3-3.092zm5.307-1.027c-.77-1.554-2.375-2.196-3.641-1.606-1.223.557-1.672 2.18-.972 3.691.733 1.566 2.332 2.199 3.632 1.581 1.21-.556 1.69-2.171.981-3.666zM119.687 19l-6.447 15.081L106.196 19H105v17h.216l.12-.41V19.729L112.76 36l6.927-16.051V36H121V19h-1.313zM136.521 36l-2.371-5.878h-7.431L124.42 36H124l6.669-17h.517L138 36h-1.479zm-9.678-6.143h7.21L130.4 20.75l-3.557 9.108z" fill="#fff"/><path d="M93 19h.436l-.074 11h-.294c-.024-3.67-.046-7.336-.068-11z" fill="#fff"/><path d="M93.318 19l-.318.045c.282 1.984.564 3.97.848 5.955l.152-.048L93.318 19zM95 27.296V27h-4v.296h4z" fill="#fff"/><path d="M95.522 25.53a.096.096 0 01.045-.024l5.341-1.191a2.592 2.592 0 001.367-.806c.373-.413.625-.938.725-1.509l-7.872 2.692L93 28l2.522-2.47z" fill="#fff"/><path d="M102 24l-6.599 1.404a1.29 1.29 0 00-.401.165l3.486.406a3.337 3.337 0 002.048-.408A3.61 3.61 0 00102 24z" fill="#fff"/><path d="M101 25.436l-5.806-.434a.647.647 0 00-.194.015l2.209.738a5.02 5.02 0 002.294.19 4.282 4.282 0 001.497-.51zM95 26l1.605 1.431c.314.281.708.468 1.135.538.426.07.864.02 1.26-.145L95 26zM90.475 25.53a.07.07 0 00-.042-.021l-5.344-1.191a2.591 2.591 0 01-1.366-.808A3.026 3.026 0 0183 22l7.874 2.695L93 28l-2.525-2.47z" fill="#fff"/><path d="M83 24l6.602 1.413c.14.03.275.085.398.162l-3.49.4a3.334 3.334 0 01-2.046-.408A3.606 3.606 0 0183 24z" fill="#fff"/><path d="M85 25.435l5.809-.434a.693.693 0 01.191.015l-2.194.74h-.016a5.009 5.009 0 01-2.294.188A4.277 4.277 0 0185 25.435zM91 26l-1.605 1.433c-.314.28-.709.467-1.135.537-.426.07-.864.018-1.26-.147L91 26zM92.685 19l.315.045L92.155 25 92 24.952 92.685 19z" fill="#fff"/></svg>