<svg width="45" height="45" fill="none" xmlns="http://www.w3.org/2000/svg"><g clip-path="url(#clip0_41_729)"><path d="M1.072 36.786V8.691c0-2.667 0-4.001.52-5.02a4.76 4.76 0 012.08-2.08c1.018-.52 2.353-.52 5.02-.52H36.31c2.667 0 4 0 5.018.52a4.762 4.762 0 012.082 2.08c.518 1.018.518 2.35.518 5.012v27.634c0 1.155 0 2.06-.042 2.796M1.072 36.786c.002 2.353.032 3.585.52 4.541a4.765 4.765 0 002.08 2.083c1.017.519 2.35.519 5.012.519h27.635c2.662 0 3.992 0 5.01-.519a4.768 4.768 0 002.082-2.083c.293-.576.42-1.252.476-2.214M1.072 36.786l11.353-13.244.003-.004c1.007-1.175 1.511-1.763 2.11-1.975a2.38 2.38 0 011.621.012c.596.22 1.092.815 2.085 2.006l6.36 7.632c.918 1.103 1.38 1.657 1.941 1.88.495.196 1.04.218 1.551.067.581-.171 1.093-.683 2.116-1.706l1.184-1.183c1.041-1.042 1.562-1.562 2.152-1.733a2.382 2.382 0 011.57.089c.566.234 1.026.807 1.946 1.958l6.823 8.528m0 0l.042.053M29.644 15.357a2.38 2.38 0 110-4.762 2.38 2.38 0 010 4.762z" stroke="#242424" stroke-width="1.5" stroke-linecap="round" stroke-linejoin="round"/></g><defs><clipPath id="clip0_41_729"><path fill="#fff" d="M0 0h45v45H0z"/></clipPath></defs></svg>