<svg width="40" height="40" fill="none" xmlns="http://www.w3.org/2000/svg"><path d="M38.75 39.375H1.25a.625.625 0 01-.625-.625V1.25A.625.625 0 011.25.625h37.5a.625.625 0 01.625.625v37.5a.624.624 0 01-.625.625zm-36.875-1.25h36.25V1.875H1.875v36.25z" fill="#fff" fill-opacity=".8"/><path d="M38.283 31.663l-9.531-10.75-8.307 8.28a.626.626 0 01-.93-.05l-9.513-11.887-8.263 10.625-.981-.762 8.75-11.25a.625.625 0 01.764-.18c.085.04.159.1.217.174l9.569 11.95 8.25-8.257a.624.624 0 01.444-.181.624.624 0 01.45.206l10 11.25-.92.832zM25 18.125a5.625 5.625 0 110-11.25 5.625 5.625 0 010 11.25zm0-10a4.375 4.375 0 100 8.75 4.375 4.375 0 000-8.75z" fill="#fff" fill-opacity=".8"/></svg>