<svg width="20" height="20" fill="none" xmlns="http://www.w3.org/2000/svg"><path d="M7.78 4.002a.625.625 0 10-.196-1.235A4.792 4.792 0 003.6 6.75a.625.625 0 001.234.196A3.542 3.542 0 017.78 4.002z" fill="currentColor"/><path fill-rule="evenodd" clip-rule="evenodd" d="M9.167.208a8.125 8.125 0 100 16.25 8.125 8.125 0 000-16.25zM2.292 8.333a6.875 6.875 0 1113.75 0 6.875 6.875 0 01-13.75 0z" fill="currentColor"/><path d="M16.275 14.558a.625.625 0 00-.884.884l3.334 3.333a.625.625 0 10.883-.884l-3.333-3.333z" fill="currentColor"/></svg>