<svg width="40" height="35" fill="none" xmlns="http://www.w3.org/2000/svg"><path d="M3 18l17.5 1L38 18l-17.5-1L3 18z" fill="#F1BE71"/><path d="M26 12l-6.45 5.087L14 23l6.45-5.087L26 12z" fill="#F1BE71"/><path d="M20.5 2L19 17.5 20.5 33 22 17.5 20.5 2z" fill="#F1BE71"/><path d="M14 12l5.55 5.913L26 23l-5.55-5.913L14 12zM30.5 26l-.5 4.5.5 4.5.5-4.5-.5-4.5z" fill="#F1BE71"/><path d="M25 30.5l5 .5 5-.5-5-.5-5 .5z" fill="#F1BE71"/><path d="M32 29l-2.15 1.388L28 32l2.15-1.388L32 29z" fill="#F1BE71"/><path d="M28 29l1.85 1.612L32 32l-1.85-1.612L28 29zM30.5 4L30 8.5l.5 4.5.5-4.5-.5-4.5z" fill="#F1BE71"/><path d="M26 8.5l5 .5 5-.5-5-.5-5 .5z" fill="#F1BE71"/><path d="M33 8l-2.15 1.387L29 11l2.15-1.388L33 8z" fill="#F1BE71"/><path d="M29 8l1.85 1.612L33 11l-1.85-1.613L29 8zM37.188 0L37 2l.188 2 .187-2-.188-2z" fill="#F1BE71"/><path d="M35 1.836L37.5 2l2.5-.164-2.5-.164-2.5.164z" fill="#F1BE71"/><path d="M39 1l-1.075.925L37 3l1.075-.925L39 1z" fill="#F1BE71"/><path d="M37 1l.925 1.075L39 3l-.925-1.075L37 1zM9.188 5L9 7l.188 2 .187-2-.188-2z" fill="#F1BE71"/><path d="M6 6.836L8.5 7l2.5-.164-2.5-.164-2.5.164z" fill="#F1BE71"/><path d="M10 5l-1.075.924L8 7l1.075-.925L10 5z" fill="#F1BE71"/><path d="M8 5l.925 1.075L10 7l-.925-1.076L8 5zM2.188 27L2 29l.188 2 .187-2-.188-2z" fill="#F1BE71"/><path d="M0 28.836L2.5 29l2.5-.164-2.5-.164-2.5.164z" fill="#F1BE71"/><path d="M4 28l-1.075.925L2 30l1.075-.925L4 28z" fill="#F1BE71"/><path d="M2 28l.925 1.075L4 30l-.925-1.075L2 28z" fill="#F1BE71"/></svg>