<svg width="44" height="44" fill="none" xmlns="http://www.w3.org/2000/svg"><path d="M38.39 43.656H5.595a5.268 5.268 0 01-3.86-1.562 5.235 5.235 0 01-1.562-3.86V5.562a5.25 5.25 0 011.515-3.875A5.266 5.266 0 015.594.125h32.812a5.282 5.282 0 013.907 1.563 5.251 5.251 0 011.562 3.843v32.672a5.236 5.236 0 01-1.563 3.86 5.281 5.281 0 01-3.921 1.593zm-8.406-10.484a1.235 1.235 0 001.328-1.031l4.329-20.703a.86.86 0 00-.282-.72.969.969 0 00-.64-.265c-.084 0-8.693 3.182-25.828 9.547a.922.922 0 00-.641.922.89.89 0 00.672.812l6.25 1.938 2.515 7.547a.969.969 0 00.985.672.876.876 0 00.625-.266l3.547-3.375 6.39 4.688c.223.147.483.229.75.234zm-11.422-3.813l-1.89-6.25c9.083-5.78 13.656-8.672 13.719-8.672.234 0 .359 0 .359.25a.284.284 0 010 .094S26.828 18.375 19 25.406l-.438 3.953z" fill="#D0D600"/></svg>