<svg width="25" height="23" fill="none" xmlns="http://www.w3.org/2000/svg"><path d="M23.476 4.95c.158-.548 0-.95-.76-.95H20.2c-.64 0-.935.346-1.093.73 0 0-1.281 3.199-3.091 5.272-.585.6-.854.792-1.175.792-.158 0-.4-.192-.4-.739V4.949c0-.656-.18-.949-.71-.949H9.78c-.402 0-.64.306-.64.59 0 .622.904.766.998 2.516v3.798c0 .831-.145.984-.465.984-.854 0-2.93-3.211-4.159-6.886C5.265 4.289 5.023 4 4.377 4H1.862C1.145 4 1 4.346 1 4.73c0 .683.854 4.074 3.975 8.554C7.055 16.342 9.983 18 12.648 18c1.6 0 1.797-.367 1.797-1.002 0-2.922-.145-3.198.658-3.198.371 0 1.012.192 2.506 1.667C19.317 17.217 19.6 18 20.555 18h2.515c.718 0 1.08-.367.871-1.094-.478-1.527-3.71-4.668-3.855-4.878-.372-.49-.265-.709 0-1.146.004-.005 3.074-4.432 3.39-5.933z" fill="currentColor"/></svg>