<svg width="44" height="44" fill="none" xmlns="http://www.w3.org/2000/svg"><path d="M42.312 1.687A5.234 5.234 0 0038.437.125H5.594a5.234 5.234 0 00-3.907 1.562A5.234 5.234 0 00.125 5.594v32.812a5.234 5.234 0 001.562 3.906 5.234 5.234 0 003.907 1.563h32.812a5.5 5.5 0 005.469-5.484V5.594a5.232 5.232 0 00-1.563-3.907z" fill="#D0D600"/><path d="M40.36 22.094a17.39 17.39 0 01-8.704 13.844 18.265 18.265 0 01-8.828 2.516h-.515a19.61 19.61 0 01-8.657-2.188L8.72 37.751c-2.047.64-3.672 1.171-4.89 1.562 0 0-.11 0-.126-.172l-.14.235s.968-2.813 2.906-8.282c.125-.345.189-.71.187-1.078a2.547 2.547 0 00-.281-.969 17.875 17.875 0 01-2.031-8.218A17.063 17.063 0 019.5 8.907a18.187 18.187 0 0111.766-5.344h2.203a18.063 18.063 0 0111.593 5.078 17.438 17.438 0 015.297 11.281v2.172zm-3.438 3.031a16.3 16.3 0 00.703-4.375 13.484 13.484 0 00-3.719-9.171 14.454 14.454 0 00-11.593-5.204H21.14a14.422 14.422 0 00-7.563 2.672A13.845 13.845 0 007.203 20.75c.001.576.048 1.151.14 1.72a13.89 13.89 0 001.798 5.624c.625 1.047.953 1.563.968 1.563L9.5 31.032c-.813 2.39-1.25 3.719-1.344 3.984l5.781-1.812a16.062 16.062 0 006.594 2.375c.55.067 1.103.103 1.657.109 2.117.04 4.22-.365 6.171-1.188a14.674 14.674 0 008.563-9.375zm-5.547-.093c.017.166.017.334 0 .5a3.296 3.296 0 01-2.031 3.125 5.437 5.437 0 01-2.328.547h-.328A19.61 19.61 0 0122 27.64a16.937 16.937 0 01-6.25-5.64 9.203 9.203 0 01-2.125-4.954c0-2.28.766-3.625 2.297-4.015a4.81 4.81 0 01.953-.11c.29.005.576.063.844.172.44.612.797 1.28 1.062 1.985.33.725.612 1.471.844 2.234a2.015 2.015 0 01-.64 1.203c-.29.34-.56.695-.813 1.063a5.61 5.61 0 001.187 1.906 11.36 11.36 0 003.22 2.812 5.986 5.986 0 002.14.891c.187 0 .593-.39 1.172-1.125.578-.734.953-1.094 1.109-1.094a8.8 8.8 0 012.328.938c.72.302 1.406.68 2.047 1.125z" fill="#fff"/></svg>