<svg width="44" height="44" fill="none" xmlns="http://www.w3.org/2000/svg"><path d="M38.39 43.875H5.595a5.232 5.232 0 01-3.907-1.563 5.234 5.234 0 01-1.562-3.875V5.594a5.234 5.234 0 011.562-3.907A5.234 5.234 0 015.594.125h32.812a5.234 5.234 0 013.906 1.562 5.234 5.234 0 011.563 3.907v32.812a5.5 5.5 0 01-5.484 5.469zM22.11 32.422h5.78c3.126-.11 4.876-.203 5.313-.297a3.75 3.75 0 001.86-.797 3.923 3.923 0 001.218-1.766c.596-2.075.84-4.235.719-6.39v-2.485a43.298 43.298 0 00-.297-4.843 5.766 5.766 0 00-1.156-2.922c-.281-.297-.469-.438-.578-.453a3.266 3.266 0 00-1.563-.72A85.946 85.946 0 0022 11.33c-1.563 0-3.422 0-5.5.093-1.985-.02-3.97.1-5.938.36a3.61 3.61 0 00-2.296 1.359 7 7 0 00-1 2.703A46.7 46.7 0 007 20.687c-.145 2.64.017 5.288.484 7.891.095.535.247 1.06.453 1.563a3.938 3.938 0 002.344 1.828l1.172.187c.928.118 1.862.186 2.797.203 3.578.016 6.187.063 7.86.063zm-3.235-6.656v-8.454l6.656 3.47c.969.5 1.453.765 1.453.78l-8.11 4.204z" fill="#D0D600"/></svg>